# xmcd CD database file
#
# Track frame offsets:
#	150
#	20523
#	33268
#	53061
#	64998
#	80967
#	98214
#	114280
#	131595
#	146108
#	159938
#	179256
#	193367
#	206918
#
# Disc length: 3050 seconds
#
# Revision: 0
# Processed by: cddbd v1.5.2PL0 Copyright (c) Steve Scherf et al.
# Submitted via: CDex 1.51
#
DISCID=cd0be80e
DTITLE=Sentimental Journey - Disc 1
DYEAR=2007
DGENRE=Jazz
TTITLE0=Sentimental Journey
TTITLE1=In The Shade Of The Old Apple Tree
TTITLE2=Sing, Sing, Sing
TTITLE3=My Wild Irish Rose
TTITLE4=In The Mood
TTITLE5=Tuxedo Junction
TTITLE6=American Patrol
TTITLE7=I'll Never Smile Again
TTITLE8=Deep River
TTITLE9=East Side, West Side
TTITLE10=Bangtail
TTITLE11=Here's One
TTITLE12=Estrellita
TTITLE13=Woodchopper's Ball
EXTD=YEAR: 2007
EXTT0=
EXTT1=
EXTT2=
EXTT3=
EXTT4=
EXTT5=
EXTT6=
EXTT7=
EXTT8=
EXTT9=
EXTT10=
EXTT11=
EXTT12=
EXTT13=
PLAYORDER=
